# xmcd CD database file
#
# Track frame offsets:
#	150
#	25420
#	47362
#	72200
#	100217
#	122525
#	143360
#	167210
#	184937
#	212945
#	239807
#
# Disc length: 3552 seconds
#
# Revision: 2
# Processed by: cddbd v1.5.1PL2 Copyright (c) Steve Scherf et al.
# Submitted via: CDex 1.51
#
DISCID=9b0dde0b
DTITLE=渡辺貞夫 - スーパー・セレクション ディスク： 2
DYEAR=1900
DGENRE=Jazz
TTITLE0=カリフォルニア・シャワー
TTITLE1=ナイス・ショット!
TTITLE2=インナー・エムブレイス
TTITLE3=サンバ・ド・マルコス
TTITLE4=セレナーデ
TTITLE5=モーニング・アイランド
TTITLE6=セヴンス・ハイ
TTITLE7=風の想い出
TTITLE8=ダウン・イースト
TTITLE9=ホーム・ミーティング
TTITLE10=マイ・ディア・ライフ
EXTD=
EXTT0=
EXTT1=
EXTT2=
EXTT3=
EXTT4=
EXTT5=
EXTT6=
EXTT7=
EXTT8=
EXTT9=
EXTT10=
PLAYORDER=
